<?xml version="1.0" standalone="no"?>
<!DOCTYPE svg PUBLIC "-//W3C//DTD SVG 20010904//EN"
 "http://www.w3.org/TR/2001/REC-SVG-20010904/DTD/svg10.dtd">
<svg version="1.0" xmlns="http://www.w3.org/2000/svg"
 width="216.000000pt" height="233.000000pt" viewBox="0 0 216.000000 233.000000"
 preserveAspectRatio="xMidYMid meet">

<g transform="translate(0.000000,233.000000) scale(0.100000,-0.100000)"
fill="#000000" stroke="none">
<path d="M1020 2113 c-239 -16 -466 -120 -635 -288 -109 -110 -181 -226 -234
-378 -35 -100 -41 -125 -51 -233 -19 -218 41 -448 167 -635 133 -197 336 -337
588 -407 85 -24 365 -24 450 0 252 70 455 210 588 407 126 187 186 417 167
635 -10 108 -16 133 -51 233 -86 249 -255 444 -488 563 -141 71 -346 114 -501
103z m585 -439 c97 -45 175 -158 175 -252 0 -67 -22 -92 -82 -92 -62 1 -116
29 -174 93 -83 90 -109 203 -59 252 31 32 71 32 140 -1z m-415 -384 c99 -51
145 -126 145 -235 -1 -81 -23 -133 -81 -189 -61 -59 -165 -81 -256 -54 -62 18
-133 88 -158 156 -81 214 148 425 350 322z m-716 -270 c109 -11 202 -23 207
-26 5 -3 9 -15 9 -28 0 -38 57 -140 106 -189 25 -26 75 -61 112 -79 62 -31 73
-33 172 -33 99 0 110 2 172 33 106 52 187 148 214 251 13 54 0 50 259 76 88 9
168 19 178 21 15 5 17 1 11 -38 -16 -101 -57 -216 -109 -304 -145 -243 -390
-393 -674 -411 -415 -27 -791 260 -875 666 -15 77 -14 93 7 86 7 -3 101 -14
211 -25z"/>
<path d="M1035 1245 c-33 -7 -72 -18 -86 -23 l-27 -11 16 -45 c10 -28 22 -45
31 -43 9 1 29 -40 61 -131 26 -73 50 -135 53 -138 6 -6 57 25 57 35 0 3 -9 36
-19 72 l-19 67 43 42 c85 84 96 143 31 174 -40 19 -60 19 -141 1z m96 -103
c-5 -9 -18 -25 -29 -35 -19 -17 -20 -17 -26 8 -9 35 -1 45 35 45 25 0 28 -3
20 -18z"/>
</g>
</svg>
